# xmcd
#
# Track frame offsets: 
#        150
#        23105
#        58863
#        92642
#        127650
#        159978
#
# Disc length: 2514 seconds
#
# Revision: 3
# Processed by: cddbd v1.5.2PL0 Copyright (c) Steve Scherf et al.
# Submitted via: ExactAudioCopy v0.95b4
#
DISCID=3e09d006
DTITLE=Dizzy Reece - Soundin' Off
DYEAR=1960
DGENRE=Jazz
TTITLE0=A Ghost Of A Chance
TTITLE1=Once In A While
TTITLE2=Eb Pob
TTITLE3=Yesterdays
TTITLE4=Our Love Is Here To Stay
TTITLE5=Blue Streak
EXTD=YEAR: 1960
EXTT0=
EXTT1=
EXTT2=
EXTT3=
EXTT4=
EXTT5=
PLAYORDER=
